<svg xmlns="http://www.w3.org/2000/svg" viewBox="0 0 542.03 109.19"><defs><style>.cls-1{fill:#fe5c19;}.cls-2{font-size:95.7px;fill:#021b3e;font-family:Webnar-Bold, Webnar;font-weight:700;}.cls-3{letter-spacing:0em;}</style></defs><title>logo-encargate-full</title><g id="Layer_2" data-name="Layer 2"><g id="Layer_1-2" data-name="Layer 1"><path class="cls-1" d="M38.52,58.83q-16.22,0-32.44,0c-5.77,0-7.58-2.84-4.81-8,8-14.84,3.8-12.36,20-12.48,18.24-.14,36.48-.05,54.72,0,6.5,0,8.45,3.07,5.69,8.92-5.43,11.55-5.43,11.55-18.14,11.55h-25Z"/><path class="cls-1" d="M61,30.57c-9.78,0-19.55,0-29.33,0-3.84,0-4.79-1.46-3-4.79,2.25-4.24,4.68-8.39,7.08-12.55,1.49-2.58,3.64-3.68,6.75-3.67,19,.11,38.06.06,57.09,0,5,0,6.43,2.14,4.22,6.56-.06.12-.14.22-.2.34-7.3,14.07-7.3,14.07-23.05,14.07Z"/><path class="cls-1" d="M51,87.49H21.68c-5.61,0-7-2.35-4.35-7.34,1.78-3.32,3.66-6.58,5.42-9.91A5.77,5.77,0,0,1,28.42,67c17.59,0,35.18,0,52.78,0,7.84,0,11.26,5.83,8.21,13-2.41,5.63-5.78,8.11-12.23,7.64-8.68-.64-17.45-.16-26.18-.16Z"/><text class="cls-2" transform="translate(132.26 81.34)">Encá<tspan class="cls-3" x="192.83" y="0">r</tspan><tspan x="227.56" y="0">gate</tspan></text></g></g></svg>